<?xml version="1.0" ?><svg enable-background="new 0 0 64 64" version="1.1" viewBox="0 0 64 64" xml:space="preserve" xmlns="http://www.w3.org/2000/svg" xmlns:xlink="http://www.w3.org/1999/xlink"><g id="Hand_Drawn_6-1"><g><path d="M14.202,41.873c11.562,0,23.125,0,34.687,0c1.272,0,2.76-1.215,0.707-1.215c-11.562,0-23.125,0-34.687,0    C13.637,40.659,12.15,41.873,14.202,41.873z"/><path d="M14.897,45.476c-1.28,0-2.735,1.228-0.683,1.228c11.562,0,23.125,0,34.687,0c1.28,0,2.735-1.228,0.683-1.228    C38.022,45.476,26.46,45.476,14.897,45.476z"/><path d="M15.441,51.635c11.562,0,23.125,0,34.687,0c0.704,0,0.515-0.445,0.253-0.81c-0.365-0.51-1.461-0.633-2.025-0.633    c-11.562,0-23.125,0-34.687,0c-0.704,0-0.515,0.445-0.253,0.81C13.782,51.512,14.878,51.635,15.441,51.635z"/><path d="M23.339,63.911c8.258,0,16.516,0,24.774,0c3.461,0,6.887-0.915,8.644-4.217c1.092-2.052,0.881-4.363,0.881-6.603    c0-8.282,0-16.564,0-24.846c0-6.719,0.17-13.463,0-20.181c-0.108-4.291-3.106-7.55-7.413-7.957    c-2.22-0.21-4.521-0.039-6.745-0.039c-8.6,0-17.201,0-25.801,0c-2.629,0-5.29-0.184-7.653,1.23    C7.069,3.068,6.286,6.033,6.286,9.22c0,15.226,0,30.453,0,45.679c0,0.447,0,0.893,0,1.34C6.696,65.365,17.02,63.911,23.339,63.911    z M14.714,0.949c6.376-0.35,12.868,0,19.252,0c3.831,0,7.663,0,11.494,0c3.166,0,6.273-0.356,8.503,2.527    c1.594,2.061,1.475,4.377,1.475,6.793c0,3.117,0,6.234,0,9.351c0,8.478,0,16.956,0,25.435c0,2.979,0,5.957,0,8.936    c0,2.794-0.053,5.579-2.436,7.573c-2.243,1.876-5.18,1.468-7.894,1.468c-3.886,0-7.772,0-11.658,0c-6.193,0-12.617,0.504-18.793,0    c-3.656-0.298-6.013-3.318-6.171-6.841c0-13.308,0-26.616,0-39.924C8.486,10.991,6.975,1.374,14.714,0.949z"/><path d="M19.8,22.479c0.241,0.035,0.55,0.052,0.895,0.052c1.547,0,2.872-0.378,3.765-1.221c0.689-0.653,1.067-1.617,1.067-2.751    c0-1.135-0.498-2.098-1.239-2.683c-0.773-0.619-1.925-0.928-3.541-0.928c-1.6,0-2.735,0.103-3.542,0.241v11.435H19.8V22.479z     M19.8,17.028c0.189-0.052,0.55-0.103,1.084-0.103c1.306,0,2.046,0.636,2.046,1.702c0,1.187-0.86,1.892-2.253,1.892    c-0.378,0-0.652-0.017-0.877-0.069V17.028z"/><path d="M35.351,25.248c1.117-0.946,1.925-2.476,1.925-4.695c0-2.046-0.756-3.473-1.96-4.367    c-1.117-0.843-2.544-1.238-4.745-1.238c-1.325,0-2.581,0.086-3.542,0.241v11.384c0.652,0.086,1.616,0.172,2.974,0.172    C32.272,26.744,34.13,26.263,35.351,25.248z M29.659,17.063c0.223-0.051,0.601-0.103,1.186-0.103c2.253,0,3.663,1.273,3.646,3.68    c0,2.769-1.549,4.076-3.921,4.058c-0.328,0-0.689,0-0.911-0.052V17.063z"/><polygon points="41.463,21.964 45.624,21.964 45.624,19.832 41.463,19.832 41.463,17.183 45.915,17.183 45.915,15.034     38.832,15.034 38.832,26.624 41.463,26.624   "/></g></g></svg>