<?xml version="1.0" encoding="UTF-8" standalone="no"?>
<svg
   xmlns:dc="http://purl.org/dc/elements/1.1/"
   xmlns:cc="http://creativecommons.org/ns#"
   xmlns:rdf="http://www.w3.org/1999/02/22-rdf-syntax-ns#"
   xmlns:svg="http://www.w3.org/2000/svg"
   xmlns="http://www.w3.org/2000/svg"
   version="1.1"
   id="svg5563"
   viewBox="0 0 241.55713 65.616372"
   height="18.518398mm"
   width="68.172791mm">
  <defs
     id="defs5565">
    <clipPath
       id="clipPath4313"
       clipPathUnits="userSpaceOnUse">
      <path
         id="path4315"
         d="m 7.889,251.35 237.164,0 0,96.602 -237.164,0 0,-96.602 z" />
    </clipPath>
  </defs>
  <metadata
     id="metadata5568">
    <rdf:RDF>
      <cc:Work
         rdf:about="">
        <dc:format>image/svg+xml</dc:format>
        <dc:type
           rdf:resource="http://purl.org/dc/dcmitype/StillImage" />
        <dc:title></dc:title>
      </cc:Work>
    </rdf:RDF>
  </metadata>
  <g
     transform="translate(-24.935728,-19.55402)"
     id="layer1">
    <g
       id="g4309"
       transform="matrix(1.25,0,0,-1.25,-11.967397,426.64827)">
      <g
         clip-path="url(#clipPath4313)"
         id="g4311">
        <g
           transform="translate(32.1837,316.6556)"
           id="g4317">
          <path
             id="path4319"
             style="fill:#ffffff;fill-opacity:1;fill-rule:nonzero;stroke:none"
             d="M 0,0 C 0.182,0.308 0.305,1.086 0.202,1.441 0.1,1.792 -0.497,2.036 -0.589,2.049 -0.6,2.049 -0.678,2.069 -0.715,2.067 -0.962,2.053 -1.622,2.007 -2.014,1.87 -2.048,1.858 -2.113,1.824 -2.14,1.813 -2.271,1.77 -2.456,1.666 -2.661,1.536 l 0,-3.191 c 0.495,0.206 1.073,0.428 1.324,0.531 0.4,0.159 1.153,0.817 1.337,1.124" />
        </g>
        <g
           transform="translate(31.7989,310.29)"
           id="g4321">
          <path
             id="path4323"
             style="fill:#ffffff;fill-opacity:1;fill-rule:nonzero;stroke:none"
             d="M 0,0 C 0.041,0.026 0.151,0.089 0.151,0.089 L 1.138,0.81 1.261,0.952 1.308,1.05 c 0,0 0.288,0.551 0.288,1.234 0,0.687 -0.87,0.94 -0.87,0.94 0,0 -0.109,0.026 -0.177,0.013 C 0.329,3.194 -0.159,3.015 -0.319,2.98 -0.492,2.943 -1.287,2.685 -1.59,2.467 -1.639,2.432 -1.811,2.321 -1.811,2.321 l -0.465,-0.299 0,-2.655 c 0.548,0.111 1.19,0.241 1.336,0.278 0.235,0.06 0.742,0.236 0.94,0.355" />
        </g>
        <g
           transform="translate(42.2416,290.0766)"
           id="g4325">
          <path
             id="path4327"
             style="fill:#ffffff;fill-opacity:1;fill-rule:nonzero;stroke:none"
             d="m 0,0 -0.37,2.488 c 0,0 -0.246,0.908 -0.422,1.005 C -0.91,3.552 -1.086,3.579 -1.188,3.595 -1.238,3.597 -1.27,3.6 -1.27,3.6 L -1.366,3.587 -1.687,3.46 -2.032,3.242 -2.113,3.167 c 0,0 -0.033,-0.038 -0.045,-0.097 -0.075,-0.371 -0.333,-1.751 -0.333,-1.928 0,-0.205 -0.53,-3.421 -0.53,-3.421 L -3.194,-5.932 -1.188,-6.056 0.384,-6.158 0.201,-3.011 0,0 Z" />
        </g>
        <g
           transform="translate(49.9619,279.3181)"
           id="g4329">
          <path
             id="path4331"
             style="fill:#ffffff;fill-opacity:1;fill-rule:nonzero;stroke:none"
             d="m 0,0 -2.161,0.628 c 0,0 -0.958,-0.733 -1.553,-0.915 -0.594,-0.181 -4.131,-1.524 -4.315,-1.472 -0.019,0.005 -0.093,-0.017 -0.181,-0.023 -0.158,-0.01 -0.405,-0.034 -0.698,-0.061 -0.908,-0.093 -2.249,-0.252 -2.76,-0.314 -0.118,-0.011 -0.354,-0.004 -0.354,-0.004 l -0.312,0.031 -2.654,0.658 c 0,0 -0.085,0.013 -0.173,0.056 -0.634,0.304 -3.239,1.59 -3.494,1.787 -0.289,0.226 0.099,0.781 0.099,0.781 0,0 -0.23,0.444 -0.274,0.624 -0.046,0.18 0.58,0.328 0.961,0.655 0.382,0.331 2.792,1.514 3.18,1.57 0.388,0.059 1.243,0.489 1.243,0.489 l 10e-4,1.795 0.041,1.073 c 0,0 0.155,2.205 0.164,2.67 0.013,0.469 0.835,4.658 0.835,4.658 0,0 0.215,3.727 0.285,4.666 0.066,0.935 -1.313,4.653 -1.313,4.653 l -0.577,2.104 -0.031,0.197 -0.054,2.984 c 0,0 -0.925,-0.428 -1.35,-0.782 -0.425,-0.35 -1.918,-0.637 -1.918,-0.637 l -3.076,-0.65 0,-32.891 22.256,0 0,4.768 c -0.735,0.41 -1.605,0.815 -1.605,0.815 L 0,0 Z" />
        </g>
        <g
           transform="translate(29.5225,325.6754)"
           id="g4333">
          <path
             id="path4335"
             style="fill:#ffffff;fill-opacity:1;fill-rule:nonzero;stroke:none"
             d="m 0,0 0,-4.324 c 0.506,0.192 1.045,0.384 1.118,0.405 0.126,0.036 2.491,0.755 2.663,0.825 0.172,0.068 2.172,0.412 2.661,0.481 0.493,0.07 2.772,0.274 3.447,-0.144 0.678,-0.414 1.565,-1.396 1.358,-2.263 -0.204,-0.868 -0.477,-1.483 -0.477,-1.483 0,0 -0.51,-1.163 -0.569,-1.282 -0.061,-0.121 -0.356,-0.64 -0.356,-0.64 l 0.187,-0.238 c 0,0 0.067,0.053 0.262,0.136 0.198,0.083 0.953,0.539 1.229,0.721 0.002,0.003 0.005,0.003 0.008,0.005 0.283,0.181 1.023,0.345 1.385,0.497 0.366,0.155 1.189,0.172 1.383,0.032 0.193,-0.139 1.023,-0.59 1.115,-0.751 0.09,-0.159 0.633,-0.252 0.633,-0.252 l 1.402,-0.176 c 0,0 0.221,-0.071 0.196,-0.123 -0.022,-0.055 -0.435,-0.205 -0.642,-0.29 -0.21,-0.084 -0.765,-0.288 -1.087,-0.38 -0.321,-0.091 -0.88,-0.409 -1.609,-0.957 -0.73,-0.548 -2.512,-1.53 -2.649,-1.942 -0.019,-0.057 -0.065,-0.14 -0.127,-0.237 -0.381,-0.591 -1.427,-1.776 -1.584,-1.951 L 9.415,-15.055 C 8.957,-15.769 8.61,-17.539 8.568,-17.698 l -0.01,-1.318 0.019,-0.136 0.249,-1.562 0.026,-0.103 0.033,-0.093 0.587,-1.164 c 0.021,-0.016 0.04,-0.043 0.058,-0.054 0.544,-0.318 0.506,0.29 0.506,0.29 0,0 -0.186,0.603 -0.286,0.922 -0.08,0.263 -0.221,1.91 -0.221,1.91 -0.007,0.295 0.098,0.65 0.182,0.771 0.13,0.186 0.296,0.419 0.696,0.519 0,0 0.583,0.15 1.124,0.093 0.386,-0.039 0.752,-0.182 0.869,-0.553 0.118,-0.379 0.189,-1.063 0.206,-1.246 0.002,-0.03 -0.007,-0.086 -0.007,-0.086 0,0 -0.155,-1.324 -0.177,-1.575 -0.022,-0.249 0.073,-0.819 0.073,-0.819 0,0 0.423,-0.151 0.504,0.142 0.03,0.11 0.177,0.975 0.177,0.975 l 0.346,2.829 0.189,2.443 c 0,0 0.269,1.764 0.383,1.969 0.114,0.204 0.603,0.432 1.027,0.575 0.647,0.221 1.237,-0.149 1.402,-0.278 0.031,-0.025 0.042,-0.098 0.042,-0.098 l -0.16,-0.734 -0.713,-1.883 c 0,0 -0.148,-1.469 -0.154,-1.582 -0.006,-0.113 0.053,-2.738 0.053,-2.738 0,0 -0.059,-1.62 -0.02,-1.738 l -0.655,-4.307 -0.303,-3.252 0.373,-2.519 c 0,0 0.668,-4.684 0.645,-4.848 -0.023,-0.161 0.183,-4.721 0.183,-4.721 l 0.082,-0.69 0.968,-0.262 1.801,-0.505 c 0,0 2.338,1.465 2.601,1.623 0.122,0.069 0.56,0.294 0.991,0.546 L 22.257,0 0,0 Z" />
        </g>
        <g
           transform="translate(123.8898,296.1375)"
           id="g4337">
          <path
             id="path4339"
             style="fill:#fdfdfe;fill-opacity:1;fill-rule:nonzero;stroke:none"
             d="m 0,0 c -0.882,0.248 -3.182,0.897 -5.589,0.897 -5.898,0 -8.235,-3.398 -8.202,-6.346 0.089,-7.876 10.041,-5.674 10.1,-10.817 0.02,-1.585 -1.144,-3.439 -4.586,-3.439 -2.19,0 -4.128,0.556 -4.812,0.822 l -0.56,-3.062 c 1.39,-0.607 4.803,-0.961 6.155,-0.961 6.053,0 8.833,3.659 8.791,7.462 -0.09,7.862 -10.156,6.466 -10.202,10.554 -0.018,1.535 1.23,2.56 3.856,2.56 2.315,0 3.824,-0.51 4.4,-0.641 L 0,0" />
        </g>
        <g
           transform="translate(97.5553,292.2531)"
           id="g4341">
          <path
             id="path4343"
             style="fill:#fdfdfe;fill-opacity:1;fill-rule:nonzero;stroke:none"
             d="m 0,0 -0.794,0 c -2.94,0 -4.9,-1.677 -6.476,-4.994 l 0,-13.615 -4.802,0 0,22.494 c 1.281,0.048 3.064,0.394 4.802,0.714 l 0,-5.327 c 1.347,2.569 3.329,5.619 6.849,5.619 0.323,0 0.695,-0.047 1.105,-0.093 L 0,0" />
        </g>
        <g
           transform="translate(143.3363,273.6439)"
           id="g4345">
          <path
             id="path4347"
             style="fill:#fdfdfe;fill-opacity:1;fill-rule:nonzero;stroke:none"
             d="m 0,0 0,15.226 c 0,3.429 -1.234,4.435 -3.337,4.435 -2.097,0 -4.116,-1.561 -5.988,-4.078 l 0,-15.583 -4.803,0 0,30.496 c 1.324,0.09 3.235,0.303 4.803,0.712 l 0,-11.869 c 2.285,2.878 4.873,4.068 7.589,4.068 2.743,0 4.893,-1.323 5.851,-3.52 0.551,-1.185 0.691,-2.33 0.691,-4.755 L 4.806,0 0,0" />
        </g>
        <g
           transform="translate(74.1027,273.6439)"
           id="g4349">
          <path
             id="path4351"
             style="fill:#fdfdfe;fill-opacity:1;fill-rule:nonzero;stroke:none"
             d="m 0,0 0,30.496 c 1.555,0.138 3.659,0.478 5.217,1.034 L 5.217,0 0,0" />
        </g>
        <g
           transform="translate(103.0528,300.5724)"
           id="g4353">
          <path
             id="path4355"
             style="fill:#fdfdfe;fill-opacity:1;fill-rule:nonzero;stroke:none"
             d="m 0,0 c -1.597,0 -2.879,1.283 -2.879,2.836 0,1.602 1.282,2.881 2.879,2.881 1.557,0 2.838,-1.279 2.838,-2.881 C 2.838,1.283 1.557,0 0,0" />
        </g>
        <g
           transform="translate(100.6324,273.6439)"
           id="g4357">
          <path
             id="path4359"
             style="fill:#fdfdfe;fill-opacity:1;fill-rule:nonzero;stroke:none"
             d="m 0,0 0,22.493 0.456,0.049 c 1.416,0.085 3.065,0.32 4.345,0.666 L 4.801,0 0,0" />
        </g>
        <g
           transform="translate(160.8047,273.6439)"
           id="g4361">
          <path
             id="path4363"
             style="fill:#fdfdfe;fill-opacity:1;fill-rule:nonzero;stroke:none"
             d="m 0,0 0,30.496 c 1.559,0.138 3.57,0.535 5.217,1.034 l 0,-28.009 9.451,0 L 14.668,0 0,0" />
        </g>
        <g
           transform="translate(202.9395,304.2162)"
           id="g4365">
          <path
             id="path4367"
             style="fill:#fdfdfe;fill-opacity:1;fill-rule:nonzero;stroke:none"
             d="m 0,0 c -0.822,0.138 -1.615,0.244 -2.259,0.244 -2.972,0 -3.925,-1.649 -3.925,-6.584 l 0,-1.508 5.211,0 -0.456,-2.837 -4.755,0 0,-19.887 -4.85,0 0,19.887 -3.799,0 0.458,2.837 3.341,0 0,1.874 c 0,6.218 2.423,9.052 7.726,9.052 1.374,0 2.437,-0.105 3.904,-0.379 L 0,0" />
        </g>
        <g
           transform="translate(181.4279,300.5724)"
           id="g4369">
          <path
             id="path4371"
             style="fill:#fdfdfe;fill-opacity:1;fill-rule:nonzero;stroke:none"
             d="m 0,0 c -1.596,0 -2.878,1.283 -2.878,2.836 0,1.602 1.282,2.881 2.878,2.881 1.557,0 2.834,-1.279 2.834,-2.881 C 2.834,1.283 1.557,0 0,0" />
        </g>
        <g
           transform="translate(179.0081,273.6439)"
           id="g4373">
          <path
             id="path4375"
             style="fill:#fdfdfe;fill-opacity:1;fill-rule:nonzero;stroke:none"
             d="m 0,0 0,22.493 0.456,0.049 c 1.731,0.134 2.832,0.392 4.34,0.666 L 4.796,0 0,0" />
        </g>
        <g
           transform="translate(213.3432,294.4463)"
           id="g4377">
          <path
             id="path4379"
             style="fill:#fdfdfe;fill-opacity:1;fill-rule:nonzero;stroke:none"
             d="m 0,0 c -2.789,0 -4.387,-2.47 -4.57,-6.9 l 8.731,0 C 4.069,-2.424 2.606,0 0,0 m -4.57,-9.74 0,-0.594 c 0.183,-5.262 2.196,-7.593 6.496,-7.593 1.871,0 3.288,0.322 5.892,1.373 l 0.962,-2.604 c -3.108,-1.552 -5.21,-2.106 -8.235,-2.106 -6.81,0 -10.418,4.253 -10.418,12.257 0,7.316 3.656,11.612 9.873,11.612 6.174,0 9.376,-4.204 9.425,-12.345 l -13.995,0 z" />
        </g>
      </g>
    </g>
  </g>
</svg>
