<svg version="1.1" viewBox="0 0 826 841" xml:space="preserve" xmlns="http://www.w3.org/2000/svg"><defs><clipPath id="clipPath3735"><path d="m0 850h850v-850h-850z"/></clipPath></defs><g transform="matrix(1.33 0 0 -1.33 -181 987)"><g fill="#5261ac"><g clip-path="url(#clipPath3735)" fill="#5261ac"><g transform="translate(180 596)"><path d="m0 0c-1.36 5.61-2.04 11.2-2.04 17 0 38.9 31.8 70.8 70.8 70.8 5.96 0 11.7-0.68 17.4-2.21 18.5 28.2 49.7 45.2 84 45.2 20.6 0 42.9-16.7 59.9-28.4 27.9 20.6 59.8 42 95.2 42 83.2 0 135-66.6 141-145 31.1-17.9 68.4-46.6 68.4-82.9 0-46.8-31.6-89.1-75.2-101-1.19-0.168-2.38-0.336-3.57-0.336l-403 0.336c-54.4 1.87-97.1 46.1-97.1 101 0 33.7 16.7 64.6 44.1 83.2" fill="#5261ac"/></g><g transform="translate(244 369)"><path d="m0 0c-3.4-1.7-5.28-4.93-5.28-8.67 0.175-11.1 1.2-66.7 9.18-82 6.47-12.6 19.6-20.6 33.9-20.6 6.12 0 12.1 1.54 17.5 4.25 9.01 4.76 15.8 12.6 18.9 22.3 3.06 9.87 2.21 20.1-2.55 29.3-7.82 15.1-52.6 48.3-61.4 54.8-3.06 2.21-6.97 2.38-10.2 0.682" fill="#5261ac"/></g><g transform="translate(349 221)"><path d="m0 0c-3.23-1.7-5.27-5.11-5.27-8.85 0.168-11 1.36-66.7 9.18-81.8 6.46-12.8 19.6-20.8 33.8-20.8 6.12 0 12.1 1.53 17.5 4.25 9.01 4.76 15.8 12.6 18.9 22.5 3.06 9.69 2.21 20.1-2.55 29.1-7.82 15.1-52.6 48.3-61.4 54.8-3.06 2.21-6.97 2.55-10.2 0.852" fill="#5261ac"/></g><g transform="translate(507 221)"><path d="m0 0c-3.4-1.7-5.44-5.11-5.27-8.85 0.168-11 1.19-66.7 9.18-81.8 6.46-12.8 19.6-20.8 33.8-20.8 6.12 0 12.1 1.53 17.5 4.25 9.01 4.76 15.6 12.6 18.9 22.5 3.06 9.69 2.22 20.1-2.55 29.1-7.82 15.1-52.6 48.3-61.6 54.8-2.89 2.21-6.8 2.55-10 0.852" fill="#5261ac"/></g><g transform="translate(679 222)"><path d="m0 0c-3.4-1.7-5.44-5.11-5.27-8.85 0.168-11 1.19-66.7 9.18-81.8 6.46-12.8 19.6-20.8 33.8-20.8 6.12 0 12.1 1.53 17.5 4.25 9.01 4.76 15.6 12.6 18.9 22.5 3.06 9.69 2.22 20.1-2.55 29.1-7.82 15.1-52.6 48.3-61.6 54.8-2.89 2.21-6.8 2.55-10 0.852" fill="#5261ac"/></g><g transform="translate(537 369)"><path d="m0 0c-3.23-1.7-5.27-4.93-5.27-8.67 0.171-11.1 1.36-66.7 9.18-82 6.64-12.6 19.6-20.6 34-20.6 5.95 0 12.1 1.54 17.5 4.25 9.02 4.76 15.6 12.6 18.9 22.3 3.06 9.87 2.21 20.1-2.55 29.3-7.82 15.1-52.6 48.3-61.6 54.8-2.89 2.21-6.8 2.38-10.2 0.682" fill="#5261ac"/></g><g transform="translate(390 369)"><path d="m0 0c-3.4-1.7-5.44-4.93-5.27-8.67 0.168-11.1 1.19-66.7 9.18-82 6.46-12.6 19.6-20.6 33.8-20.6 6.12 0 12.1 1.54 17.5 4.25 9.02 4.76 15.8 12.6 18.9 22.3 3.06 9.87 2.21 20.1-2.55 29.3-7.82 15.1-52.6 48.3-61.4 54.8-3.06 2.21-6.97 2.38-10.2 0.682" fill="#5261ac"/></g></g></g></g></svg>
